<svg width="1323" height="758" viewBox="0 0 1323 758" fill="none" xmlns="http://www.w3.org/2000/svg">
<path d="M133.962 512.907V577.442H126.147V512.907H133.962ZM201.561 533.074H193.746C193.284 530.826 192.475 528.852 191.32 527.15C190.185 525.449 188.799 524.02 187.16 522.865C185.543 521.688 183.747 520.806 181.772 520.218C179.797 519.63 177.739 519.336 175.596 519.336C171.688 519.336 168.149 520.323 164.977 522.298C161.825 524.272 159.315 527.182 157.445 531.026C155.597 534.87 154.673 539.587 154.673 545.174C154.673 550.762 155.597 555.479 157.445 559.323C159.315 563.167 161.825 566.077 164.977 568.051C168.149 570.026 171.688 571.013 175.596 571.013C177.739 571.013 179.797 570.719 181.772 570.131C183.747 569.543 185.543 568.671 187.16 567.516C188.799 566.339 190.185 564.9 191.32 563.199C192.475 561.476 193.284 559.501 193.746 557.275H201.561C200.973 560.573 199.901 563.524 198.347 566.129C196.792 568.734 194.859 570.95 192.549 572.778C190.238 574.585 187.643 575.961 184.765 576.906C181.908 577.851 178.852 578.324 175.596 578.324C170.092 578.324 165.197 576.98 160.912 574.291C156.626 571.602 153.255 567.778 150.797 562.821C148.339 557.863 147.11 551.981 147.11 545.174C147.11 538.368 148.339 532.486 150.797 527.528C153.255 522.571 156.626 518.747 160.912 516.058C165.197 513.369 170.092 512.025 175.596 512.025C178.852 512.025 181.908 512.498 184.765 513.443C187.643 514.388 190.238 515.775 192.549 517.602C194.859 519.409 196.792 521.615 198.347 524.22C199.901 526.804 200.973 529.755 201.561 533.074ZM268.64 545.174C268.64 551.981 267.411 557.863 264.953 562.821C262.495 567.778 259.123 571.602 254.838 574.291C250.552 576.98 245.658 578.324 240.154 578.324C234.65 578.324 229.755 576.98 225.47 574.291C221.184 571.602 217.813 567.778 215.355 562.821C212.897 557.863 211.668 551.981 211.668 545.174C211.668 538.368 212.897 532.486 215.355 527.528C217.813 522.571 221.184 518.747 225.47 516.058C229.755 513.369 234.65 512.025 240.154 512.025C245.658 512.025 250.552 513.369 254.838 516.058C259.123 518.747 262.495 522.571 264.953 527.528C267.411 532.486 268.64 538.368 268.64 545.174ZM261.077 545.174C261.077 539.587 260.142 534.87 258.273 531.026C256.424 527.182 253.914 524.272 250.741 522.298C247.59 520.323 244.061 519.336 240.154 519.336C236.246 519.336 232.707 520.323 229.535 522.298C226.384 524.272 223.873 527.182 222.004 531.026C220.155 534.87 219.231 539.587 219.231 545.174C219.231 550.762 220.155 555.479 222.004 559.323C223.873 563.167 226.384 566.077 229.535 568.051C232.707 570.026 236.246 571.013 240.154 571.013C244.061 571.013 247.59 570.026 250.741 568.051C253.914 566.077 256.424 563.167 258.273 559.323C260.142 555.479 261.077 550.762 261.077 545.174ZM332.954 512.907V577.442H325.391L290.225 526.772H289.594V577.442H281.78V512.907H289.342L324.635 563.703H325.265V512.907H332.954ZM356.406 512.907V577.442H348.591V512.907H356.406ZM424.004 533.074H416.19C415.728 530.826 414.919 528.852 413.763 527.15C412.629 525.449 411.242 524.02 409.604 522.865C407.986 521.688 406.19 520.806 404.216 520.218C402.241 519.63 400.182 519.336 398.039 519.336C394.132 519.336 390.592 520.323 387.42 522.298C384.269 524.272 381.759 527.182 379.889 531.026C378.04 534.87 377.116 539.587 377.116 545.174C377.116 550.762 378.04 555.479 379.889 559.323C381.759 563.167 384.269 566.077 387.42 568.051C390.592 570.026 394.132 571.013 398.039 571.013C400.182 571.013 402.241 570.719 404.216 570.131C406.19 569.543 407.986 568.671 409.604 567.516C411.242 566.339 412.629 564.9 413.763 563.199C414.919 561.476 415.728 559.501 416.19 557.275H424.004C423.416 560.573 422.345 563.524 420.79 566.129C419.236 568.734 417.303 570.95 414.992 572.778C412.681 574.585 410.087 575.961 407.209 576.906C404.352 577.851 401.296 578.324 398.039 578.324C392.535 578.324 387.641 576.98 383.355 574.291C379.07 571.602 375.698 567.778 373.24 562.821C370.782 557.863 369.553 551.981 369.553 545.174C369.553 538.368 370.782 532.486 373.24 527.528C375.698 522.571 379.07 518.747 383.355 516.058C387.641 513.369 392.535 512.025 398.039 512.025C401.296 512.025 404.352 512.498 407.209 513.443C410.087 514.388 412.681 515.775 414.992 517.602C417.303 519.409 419.236 521.615 420.79 524.22C422.345 526.804 423.416 529.755 424.004 533.074ZM461.589 577.442V512.907H469.404V570.509H499.402V577.442H461.589ZM553.853 512.907H561.668V555.636C561.668 560.048 560.628 563.987 558.548 567.453C556.489 570.898 553.58 573.618 549.82 575.614C546.059 577.589 541.648 578.576 536.585 578.576C531.522 578.576 527.111 577.589 523.35 575.614C519.59 573.618 516.67 570.898 514.59 567.453C512.532 563.987 511.502 560.048 511.502 555.636V512.907H519.317V555.006C519.317 558.157 520.01 560.961 521.397 563.419C522.783 565.856 524.758 567.778 527.321 569.186C529.905 570.572 532.993 571.266 536.585 571.266C540.177 571.266 543.265 570.572 545.849 569.186C548.433 567.778 550.408 565.856 551.773 563.419C553.16 560.961 553.853 558.157 553.853 555.006V512.907ZM581.055 512.907L597.693 539.755H598.197L614.835 512.907H624.036L603.743 545.174L624.036 577.442H614.835L598.197 551.099H597.693L581.055 577.442H571.854L592.651 545.174L571.854 512.907H581.055ZM676.557 512.907H684.371V555.636C684.371 560.048 683.332 563.987 681.252 567.453C679.193 570.898 676.284 573.618 672.523 575.614C668.763 577.589 664.351 578.576 659.289 578.576C654.226 578.576 649.814 577.589 646.054 575.614C642.294 573.618 639.374 570.898 637.294 567.453C635.235 563.987 634.206 560.048 634.206 555.636V512.907H642.021V555.006C642.021 558.157 642.714 560.961 644.1 563.419C645.487 565.856 647.462 567.778 650.024 569.186C652.608 570.572 655.696 571.266 659.289 571.266C662.881 571.266 665.969 570.572 668.553 569.186C671.137 567.778 673.111 565.856 674.477 563.419C675.863 560.961 676.557 558.157 676.557 555.006V512.907ZM699.977 577.442V512.907H721.783C726.825 512.907 730.963 513.769 734.198 515.491C737.433 517.193 739.828 519.535 741.383 522.518C742.937 525.501 743.714 528.894 743.714 532.696C743.714 536.498 742.937 539.87 741.383 542.811C739.828 545.752 737.444 548.063 734.23 549.744C731.015 551.403 726.909 552.233 721.909 552.233H704.263V545.174H721.657C725.102 545.174 727.875 544.67 729.976 543.662C732.097 542.654 733.631 541.225 734.576 539.376C735.543 537.507 736.026 535.28 736.026 532.696C736.026 530.112 735.543 527.854 734.576 525.921C733.61 523.989 732.066 522.497 729.944 521.447C727.822 520.375 725.018 519.84 721.531 519.84H707.792V577.442H699.977ZM730.354 548.452L746.235 577.442H737.16L721.531 548.452H730.354ZM749.024 512.907H757.973L775.871 543.032H776.628L794.526 512.907H803.475L780.157 550.846V577.442H772.342V550.846L749.024 512.907ZM873.831 529.041C873.453 525.848 871.919 523.369 869.23 521.604C866.541 519.84 863.243 518.957 859.336 518.957C856.479 518.957 853.979 519.42 851.836 520.344C849.715 521.268 848.055 522.539 846.858 524.157C845.681 525.774 845.093 527.612 845.093 529.671C845.093 531.394 845.503 532.875 846.322 534.114C847.162 535.333 848.234 536.351 849.536 537.171C850.838 537.969 852.204 538.631 853.632 539.156C855.061 539.66 856.374 540.07 857.571 540.385L864.126 542.149C865.806 542.591 867.676 543.2 869.734 543.977C871.814 544.754 873.799 545.815 875.69 547.16C877.602 548.483 879.177 550.185 880.417 552.264C881.656 554.344 882.276 556.897 882.276 559.922C882.276 563.409 881.362 566.56 879.534 569.375C877.728 572.19 875.081 574.427 871.594 576.087C868.127 577.746 863.915 578.576 858.958 578.576C854.336 578.576 850.334 577.83 846.952 576.339C843.591 574.847 840.944 572.768 839.011 570.1C837.1 567.432 836.018 564.333 835.766 560.804H843.832C844.043 563.241 844.862 565.257 846.29 566.854C847.74 568.43 849.567 569.606 851.773 570.383C854 571.139 856.395 571.518 858.958 571.518C861.941 571.518 864.619 571.034 866.993 570.068C869.367 569.081 871.247 567.715 872.633 565.972C874.02 564.207 874.713 562.148 874.713 559.796C874.713 557.653 874.115 555.909 872.917 554.565C871.72 553.22 870.144 552.128 868.19 551.288C866.237 550.447 864.126 549.712 861.857 549.082L853.916 546.813C848.874 545.364 844.883 543.294 841.942 540.605C839.001 537.916 837.53 534.398 837.53 530.049C837.53 526.436 838.507 523.285 840.461 520.596C842.436 517.886 845.082 515.785 848.402 514.294C851.742 512.781 855.471 512.025 859.588 512.025C863.747 512.025 867.445 512.771 870.68 514.262C873.915 515.733 876.478 517.749 878.368 520.312C880.28 522.875 881.288 525.785 881.394 529.041H873.831ZM897.771 577.442H889.578L913.275 512.907H921.342L945.038 577.442H936.845L917.56 523.117H917.056L897.771 577.442ZM900.796 552.233H933.82V559.165H900.796V552.233ZM955.09 577.442V512.907H993.785V519.84H962.904V541.645H990.886V548.578H962.904V577.442H955.09ZM1001.76 577.442H993.565L1017.26 512.907H1025.33L1049.02 577.442H1040.83L1021.55 523.117H1021.04L1001.76 577.442ZM1004.78 552.233H1037.81V559.165H1004.78V552.233ZM1059.08 577.442V512.907H1080.88C1085.92 512.907 1090.06 513.769 1093.3 515.491C1096.53 517.193 1098.93 519.535 1100.48 522.518C1102.04 525.501 1102.81 528.894 1102.81 532.696C1102.81 536.498 1102.04 539.87 1100.48 542.811C1098.93 545.752 1096.54 548.063 1093.33 549.744C1090.11 551.403 1086.01 552.233 1081.01 552.233H1063.36V545.174H1080.76C1084.2 545.174 1086.97 544.67 1089.07 543.662C1091.2 542.654 1092.73 541.225 1093.67 539.376C1094.64 537.507 1095.12 535.28 1095.12 532.696C1095.12 530.112 1094.64 527.854 1093.67 525.921C1092.71 523.989 1091.16 522.497 1089.04 521.447C1086.92 520.375 1084.12 519.84 1080.63 519.84H1066.89V577.442H1059.08ZM1089.45 548.452L1105.33 577.442H1096.26L1080.63 548.452H1089.45ZM1123.65 512.907V577.442H1115.83V512.907H1123.65ZM1174.61 529.041C1174.23 525.848 1172.7 523.369 1170.01 521.604C1167.32 519.84 1164.02 518.957 1160.12 518.957C1157.26 518.957 1154.76 519.42 1152.62 520.344C1150.49 521.268 1148.83 522.539 1147.64 524.157C1146.46 525.774 1145.87 527.612 1145.87 529.671C1145.87 531.394 1146.28 532.875 1147.1 534.114C1147.94 535.333 1149.01 536.351 1150.32 537.171C1151.62 537.969 1152.98 538.631 1154.41 539.156C1155.84 539.66 1157.15 540.07 1158.35 540.385L1164.91 542.149C1166.59 542.591 1168.46 543.2 1170.51 543.977C1172.59 544.754 1174.58 545.815 1176.47 547.16C1178.38 548.483 1179.96 550.185 1181.2 552.264C1182.44 554.344 1183.06 556.897 1183.06 559.922C1183.06 563.409 1182.14 566.56 1180.31 569.375C1178.51 572.19 1175.86 574.427 1172.37 576.087C1168.91 577.746 1164.7 578.576 1159.74 578.576C1155.12 578.576 1151.11 577.83 1147.73 576.339C1144.37 574.847 1141.72 572.768 1139.79 570.1C1137.88 567.432 1136.8 564.333 1136.55 560.804H1144.61C1144.82 563.241 1145.64 565.257 1147.07 566.854C1148.52 568.43 1150.35 569.606 1152.55 570.383C1154.78 571.139 1157.17 571.518 1159.74 571.518C1162.72 571.518 1165.4 571.034 1167.77 570.068C1170.15 569.081 1172.03 567.715 1173.41 565.972C1174.8 564.207 1175.49 562.148 1175.49 559.796C1175.49 557.653 1174.89 555.909 1173.7 554.565C1172.5 553.22 1170.92 552.128 1168.97 551.288C1167.02 550.447 1164.91 549.712 1162.64 549.082L1154.7 546.813C1149.65 545.364 1145.66 543.294 1142.72 540.605C1139.78 537.916 1138.31 534.398 1138.31 530.049C1138.31 526.436 1139.29 523.285 1141.24 520.596C1143.22 517.886 1145.86 515.785 1149.18 514.294C1152.52 512.781 1156.25 512.025 1160.37 512.025C1164.53 512.025 1168.22 512.771 1171.46 514.262C1174.69 515.733 1177.26 517.749 1179.15 520.312C1181.06 522.875 1182.07 525.785 1182.17 529.041H1174.61Z" fill="black"/>
<path d="M518.5 653.38C519.02 653.38 519.46 653.55 519.82 653.89C520.18 654.23 520.36 654.64 520.36 655.13C520.36 655.65 520.18 656.08 519.82 656.42C519.46 656.76 519.02 656.93 518.5 656.93H497.06C496.54 656.93 496.11 656.75 495.77 656.39C495.43 656.03 495.26 655.61 495.26 655.13V616.59C495.26 616.11 495.44 615.69 495.8 615.32C496.16 614.96 496.62 614.78 497.19 614.78C497.67 614.78 498.1 614.96 498.48 615.32C498.86 615.68 499.05 616.1 499.05 616.59V654.41L497.91 653.39H518.5V653.38Z" fill="#BB9B6A"/>
<path d="M585.61 614.79C585.89 614.79 586.18 614.86 586.48 615C586.78 615.14 587.03 615.33 587.23 615.57L603.85 640.5L602.22 640.44L618.9 615.57C619.34 614.97 619.88 614.71 620.53 614.79C621.01 614.79 621.42 614.96 621.76 615.3C622.1 615.64 622.27 616.07 622.27 616.59V655.13C622.27 655.61 622.08 656.03 621.7 656.39C621.32 656.75 620.87 656.93 620.34 656.93C619.82 656.93 619.38 656.75 619.02 656.39C618.66 656.03 618.48 655.61 618.48 655.13V620.26L619.56 620.38L604.32 643.44C604.2 643.68 604.01 643.87 603.75 644.01C603.49 644.15 603.22 644.22 602.94 644.22C602.66 644.22 602.39 644.15 602.13 644.01C601.87 643.87 601.66 643.68 601.5 643.44L586.21 620.14L587.35 619.36V655.13C587.35 655.61 587.18 656.03 586.84 656.39C586.5 656.75 586.07 656.93 585.55 656.93C585.03 656.93 584.61 656.75 584.28 656.39C583.96 656.03 583.8 655.61 583.8 655.13V616.59C583.8 616.15 583.97 615.74 584.31 615.36C584.66 614.98 585.09 614.79 585.61 614.79Z" fill="#BB9B6A"/>
<path d="M685.61 618.21C685.13 618.21 684.71 618.05 684.34 617.73C683.98 617.41 683.8 617.01 683.8 616.53C683.8 616.01 683.98 615.59 684.34 615.26C684.7 614.94 685.12 614.78 685.61 614.78H714.21C714.73 614.78 715.17 614.94 715.53 615.26C715.89 615.58 716.07 616 716.07 616.53C716.07 617.06 715.89 617.46 715.53 617.76C715.17 618.06 714.73 618.21 714.21 618.21H685.61ZM699.94 656.93C699.38 656.93 698.92 656.75 698.56 656.39C698.2 656.03 698.02 655.61 698.02 655.13V616.77H701.81V655.13C701.81 655.61 701.63 656.03 701.27 656.39C700.9 656.75 700.46 656.93 699.94 656.93Z" fill="#BB9B6A"/>
<path d="M744.07 614.78H766.11C766.63 614.78 767.07 614.95 767.43 615.29C767.79 615.63 767.97 616.06 767.97 616.58C767.97 617.1 767.79 617.52 767.43 617.85C767.07 618.17 766.63 618.33 766.11 618.33H745.46L746.06 617.31V634.23L745.4 633.45H763.4C763.92 633.45 764.36 633.63 764.72 633.99C765.08 634.35 765.26 634.77 765.26 635.26C765.26 635.78 765.08 636.2 764.72 636.52C764.36 636.84 763.92 637 763.4 637H745.52L746.06 636.4V653.74L745.76 653.38H766.11C766.63 653.38 767.07 653.56 767.43 653.92C767.79 654.28 767.97 654.7 767.97 655.18C767.97 655.7 767.79 656.12 767.43 656.45C767.07 656.77 766.63 656.93 766.11 656.93H744.07C743.55 656.93 743.12 656.75 742.78 656.39C742.44 656.03 742.27 655.61 742.27 655.13V616.59C742.27 616.11 742.44 615.69 742.78 615.32C743.12 614.96 743.55 614.78 744.07 614.78Z" fill="#BB9B6A"/>
<path d="M810.09 614.78C813.06 614.78 815.65 615.34 817.86 616.47C820.07 617.59 821.9 619.15 823.37 621.14C824.84 623.13 825.92 625.39 826.62 627.91C827.32 630.44 827.67 633.09 827.67 635.86C827.67 639.71 827.04 643.24 825.77 646.43C824.5 649.62 822.58 652.17 819.99 654.08C817.4 655.99 814.1 656.94 810.08 656.94H794.72C794.2 656.94 793.77 656.76 793.43 656.4C793.09 656.04 792.92 655.62 792.92 655.14V616.6C792.92 616.12 793.09 615.7 793.43 615.33C793.77 614.97 794.2 614.79 794.72 614.79H810.09V614.78ZM809.49 653.38C812.86 653.38 815.6 652.6 817.71 651.03C819.82 649.46 821.36 647.35 822.35 644.68C823.33 642.01 823.83 639.07 823.83 635.86C823.83 633.57 823.56 631.36 823.02 629.24C822.48 627.11 821.63 625.24 820.49 623.61C819.35 621.98 817.86 620.7 816.03 619.76C814.2 618.82 812.03 618.35 809.5 618.35H796.3L796.72 617.87V654L796.36 653.4H809.49V653.38Z" fill="#BB9B6A"/>
<path d="M549.76 655.06C549.72 655.58 549.51 656.02 549.13 656.38C548.75 656.74 548.32 656.92 547.84 656.92C547.24 656.92 546.78 656.74 546.45 656.38C546.13 656.02 545.97 655.58 545.97 655.06V616.64C545.97 616.12 546.15 615.68 546.51 615.32C546.87 614.96 547.33 614.78 547.9 614.78C548.38 614.78 548.81 614.96 549.19 615.32C549.57 615.68 549.76 616.12 549.76 616.64V655.06Z" fill="#BB9B6A"/>
<path d="M660.12 655.06C660.08 655.58 659.87 656.02 659.49 656.38C659.11 656.74 658.68 656.92 658.2 656.92C657.6 656.92 657.14 656.74 656.81 656.38C656.49 656.02 656.33 655.58 656.33 655.06V616.64C656.33 616.12 656.51 615.68 656.87 615.32C657.23 614.96 657.69 614.78 658.26 614.78C658.74 614.78 659.17 614.96 659.55 615.32C659.93 615.68 660.12 616.12 660.12 616.64V655.06Z" fill="#BB9B6A"/>
<path d="M547.36 132.4H575.88V297.69C573.04 295.3 570.23 292.89 567.44 290.45C560.61 284.49 553.92 278.38 547.36 272.13V132.4ZM547.36 293.45V300.46V387.01C556.59 395.82 566.11 404.35 575.88 412.57V317.65C568.89 312.07 562.02 306.34 555.28 300.47C552.63 298.15 549.98 295.82 547.36 293.45ZM677.63 341.46C671.54 339.16 666.05 335.63 661.46 331.17C656.88 335.63 651.39 339.16 645.29 341.46C642.93 342.35 640.49 343.07 637.97 343.56C638.23 343.73 638.47 343.9 638.73 344.06C646.2 348.87 653.77 353.51 661.45 358C669.13 353.51 676.71 348.87 684.17 344.06C684.43 343.9 684.67 343.73 684.93 343.56C682.43 343.07 679.99 342.36 677.63 341.46ZM590.15 132.4V151.59C600.24 155.85 609.79 161.14 618.68 167.32C623.66 170.78 628.42 174.52 632.94 178.52V247.8C633.48 248.75 634.07 249.67 634.71 250.56L634.72 250.57C634.76 250.63 634.81 250.71 634.86 250.77C640.29 258.3 648.84 263.43 658.61 264.28C659.55 264.36 660.51 264.4 661.48 264.4C662.45 264.4 663.4 264.36 664.35 264.28C674.12 263.43 682.66 258.31 688.09 250.77C688.14 250.71 688.19 250.63 688.23 250.57L688.24 250.56C688.88 249.67 689.46 248.75 690.01 247.8V178.52C694.54 174.52 699.3 170.78 704.27 167.32C713.16 161.14 722.71 155.85 732.8 151.59V132.4H590.15ZM590.15 328.71V328.95V424.22C599.44 431.58 608.96 438.66 618.68 445.47V348.98C609.09 342.56 599.68 335.87 590.47 328.95C590.36 328.87 590.25 328.79 590.15 328.71ZM775.56 132.4H747.04V297.69C749.88 295.3 752.69 292.89 755.48 290.45C762.31 284.49 769 278.38 775.56 272.13V132.4ZM767.64 300.46C760.9 306.33 754.03 312.06 747.04 317.64V412.56C756.82 404.34 766.33 395.81 775.56 387V300.45V293.44C772.94 295.82 770.3 298.15 767.64 300.46ZM655.27 278.24C646.95 277.15 639.3 273.88 632.94 269.02C631.17 267.67 629.5 266.2 627.94 264.62C624.17 260.79 621.05 256.33 618.76 251.39C618.73 251.33 618.7 251.27 618.67 251.21V205.53C608.06 197.67 598.46 188.52 590.14 178.29V309.2H590C590.05 309.24 590.1 309.28 590.15 309.32C595.84 313.82 601.61 318.23 607.46 322.52H607.53C607.77 322.72 608.02 322.92 608.26 323.11C608.27 323.12 608.28 323.13 608.28 323.13C608.99 323.66 609.71 324.18 610.43 324.7C610.48 324.74 610.53 324.76 610.57 324.8C613.05 326.45 615.78 327.76 618.68 328.68C621.83 329.69 625.18 330.23 628.66 330.23C630.11 330.23 631.54 330.13 632.94 329.95C642.2 328.74 650.25 323.68 655.4 316.41H655.41C659.22 311.06 661.46 304.5 661.46 297.43C661.46 294 660.93 290.69 659.94 287.57C658.89 284.19 657.3 281.05 655.27 278.24ZM732.78 309.2V178.29C724.46 188.52 714.87 197.67 704.25 205.53V251.21C704.23 251.27 704.19 251.33 704.16 251.39C701.88 256.33 698.75 260.79 694.98 264.62C693.42 266.2 691.75 267.67 689.98 269.02C683.61 273.88 675.97 277.15 667.65 278.24C665.62 281.04 664.03 284.18 662.98 287.56C661.99 290.67 661.46 293.98 661.46 297.42C661.46 304.5 663.7 311.05 667.51 316.4H667.52C672.67 323.67 680.72 328.73 689.98 329.94C691.38 330.12 692.81 330.22 694.26 330.22C697.74 330.22 701.1 329.68 704.24 328.67C707.14 327.74 709.86 326.43 712.35 324.79C712.39 324.76 712.44 324.73 712.49 324.69C713.21 324.18 713.93 323.65 714.64 323.12C714.65 323.12 714.66 323.11 714.66 323.1C714.91 322.91 715.16 322.71 715.39 322.51H715.46C721.31 318.21 727.08 313.81 732.77 309.31C732.82 309.27 732.87 309.23 732.92 309.19H732.78V309.2ZM747.04 53.79V89.6H689.98V53.79H632.94V89.6H575.88V53.79H547.36V118.13H775.56V53.79H747.04ZM732.46 328.95C723.25 335.87 713.84 342.56 704.25 348.98V445.47C713.97 438.66 723.49 431.57 732.78 424.22V328.95V328.71C732.67 328.79 732.57 328.87 732.46 328.95ZM685.25 361.2C679.71 364.63 674.11 367.97 668.45 371.24C666.13 372.57 663.8 373.9 661.46 375.2C659.12 373.9 656.8 372.57 654.47 371.24C648.82 367.97 643.22 364.63 637.67 361.2C636.08 360.22 634.51 359.24 632.93 358.24V455.16C642.26 461.32 651.77 467.22 661.45 472.87C671.13 467.22 680.64 461.32 689.97 455.16V358.24C688.41 359.24 686.84 360.22 685.25 361.2Z" fill="#BB9B6A"/>
</svg>
